# Goxel 0.10.8
v -1 -1 1 1.000000 1.000000 1.000000
v 0 -1 1 1.000000 1.000000 1.000000
v 0 -1 2 1.000000 1.000000 1.000000
v -1 -1 2 1.000000 1.000000 1.000000
v 0 0 1 1.000000 1.000000 1.000000
v -1 0 1 1.000000 1.000000 1.000000
v -1 0 2 1.000000 1.000000 1.000000
v 0 0 2 1.000000 1.000000 1.000000
v 0 -1 3 1.000000 1.000000 1.000000
v -1 -1 3 1.000000 1.000000 1.000000
v -1 0 3 1.000000 1.000000 1.000000
v 0 0 3 1.000000 1.000000 1.000000
v 0 -1 0 1.000000 1.000000 1.000000
v 1 -1 0 1.000000 1.000000 1.000000
v 1 -1 1 1.000000 1.000000 1.000000
v 1 0 0 1.000000 1.000000 1.000000
v 0 0 0 1.000000 1.000000 1.000000
v 1 0 1 1.000000 1.000000 1.000000
v 1 -1 2 1.000000 1.000000 1.000000
v 1 0 2 1.000000 1.000000 1.000000
v 2 -1 1 1.000000 1.000000 1.000000
v 2 -1 2 1.000000 1.000000 1.000000
v 2 0 1 1.000000 1.000000 1.000000
v 2 0 2 1.000000 1.000000 1.000000
v 1 -1 3 1.000000 1.000000 1.000000
v 1 0 3 1.000000 1.000000 1.000000
v 1 -1 4 1.000000 1.000000 1.000000
v 0 -1 4 1.000000 1.000000 1.000000
v 0 0 4 1.000000 1.000000 1.000000
v 1 0 4 1.000000 1.000000 1.000000
v 1 1 2 1.000000 1.000000 1.000000
v 0 1 2 1.000000 1.000000 1.000000
v 0 1 3 1.000000 1.000000 1.000000
v 1 1 3 1.000000 1.000000 1.000000
vn 0 -1 0
vn 0 1 0
vn 0 0 -1
vn -1 0 0
vn 0 0 1
vn 1 0 0
f 1//1 2//1 3//1 4//1
f 5//2 6//2 7//2 8//2
f 1//3 6//3 5//3 2//3
f 1//4 4//4 7//4 6//4
f 4//1 3//1 9//1 10//1
f 8//2 7//2 11//2 12//2
f 9//5 12//5 11//5 10//5
f 4//4 10//4 11//4 7//4
f 13//1 14//1 15//1 2//1
f 16//2 17//2 5//2 18//2
f 13//3 17//3 16//3 14//3
f 14//6 16//6 18//6 15//6
f 13//4 2//4 5//4 17//4
f 2//1 15//1 19//1 3//1
f 18//2 5//2 8//2 20//2
f 15//1 21//1 22//1 19//1
f 23//2 18//2 20//2 24//2
f 15//3 18//3 23//3 21//3
f 22//5 24//5 20//5 19//5
f 21//6 23//6 24//6 22//6
f 3//1 19//1 25//1 9//1
f 19//6 20//6 26//6 25//6
f 9//1 25//1 27//1 28//1
f 26//2 12//2 29//2 30//2
f 27//5 30//5 29//5 28//5
f 25//6 26//6 30//6 27//6
f 9//4 28//4 29//4 12//4
f 31//2 32//2 33//2 34//2
f 8//3 32//3 31//3 20//3
f 26//5 34//5 33//5 12//5
f 20//6 31//6 34//6 26//6
f 8//4 12//4 33//4 32//4
