# Goxel 0.10.8
v 2 -1 0 1.000000 1.000000 1.000000
v 3 -1 0 1.000000 1.000000 1.000000
v 3 -1 1 1.000000 1.000000 1.000000
v 2 -1 1 1.000000 1.000000 1.000000
v 3 0 0 1.000000 1.000000 1.000000
v 2 0 0 1.000000 1.000000 1.000000
v 2 0 1 1.000000 1.000000 1.000000
v 3 0 1 1.000000 1.000000 1.000000
v 1 -1 1 1.000000 1.000000 1.000000
v 2 -1 2 1.000000 1.000000 1.000000
v 1 -1 2 1.000000 1.000000 1.000000
v 1 0 1 1.000000 1.000000 1.000000
v 1 0 2 1.000000 1.000000 1.000000
v 3 -1 2 1.000000 1.000000 1.000000
v 3 0 2 1.000000 1.000000 1.000000
v 0 -1 2 1.000000 1.000000 1.000000
v 1 -1 3 1.000000 1.000000 1.000000
v 0 -1 3 1.000000 1.000000 1.000000
v 0 0 2 1.000000 1.000000 1.000000
v 0 0 3 1.000000 1.000000 1.000000
v 1 0 3 1.000000 1.000000 1.000000
v 2 -1 3 1.000000 1.000000 1.000000
v 2 0 3 1.000000 1.000000 1.000000
v 3 -1 3 1.000000 1.000000 1.000000
v 2 0 2 1.000000 1.000000 1.000000
v 3 0 3 1.000000 1.000000 1.000000
v 2 1 1 1.000000 1.000000 1.000000
v 1 1 1 1.000000 1.000000 1.000000
v 1 1 2 1.000000 1.000000 1.000000
v 2 1 2 1.000000 1.000000 1.000000
v 3 1 1 1.000000 1.000000 1.000000
v 3 1 2 1.000000 1.000000 1.000000
v 1 1 3 1.000000 1.000000 1.000000
v 2 1 3 1.000000 1.000000 1.000000
vn 0 -1 0
vn 0 1 0
vn 0 0 -1
vn 1 0 0
vn -1 0 0
vn 0 0 1
f 1//1 2//1 3//1 4//1
f 5//2 6//2 7//2 8//2
f 1//3 6//3 5//3 2//3
f 2//4 5//4 8//4 3//4
f 1//5 4//5 7//5 6//5
f 9//1 4//1 10//1 11//1
f 9//3 12//3 7//3 4//3
f 9//5 11//5 13//5 12//5
f 4//1 3//1 14//1 10//1
f 3//4 8//4 15//4 14//4
f 16//1 11//1 17//1 18//1
f 13//2 19//2 20//2 21//2
f 16//3 19//3 13//3 11//3
f 17//6 21//6 20//6 18//6
f 16//5 18//5 20//5 19//5
f 11//1 10//1 22//1 17//1
f 22//6 23//6 21//6 17//6
f 10//1 14//1 24//1 22//1
f 15//2 25//2 23//2 26//2
f 24//6 26//6 23//6 22//6
f 14//4 15//4 26//4 24//4
f 27//2 28//2 29//2 30//2
f 12//3 28//3 27//3 7//3
f 12//5 13//5 29//5 28//5
f 31//2 27//2 30//2 32//2
f 7//3 27//3 31//3 8//3
f 15//6 32//6 30//6 25//6
f 8//4 31//4 32//4 15//4
f 30//2 29//2 33//2 34//2
f 23//6 34//6 33//6 21//6
f 25//4 30//4 34//4 23//4
f 13//5 21//5 33//5 29//5
