# Goxel 0.10.8
v -1 0 0 1.000000 1.000000 1.000000
v 0 0 0 1.000000 1.000000 1.000000
v 0 0 1 1.000000 1.000000 1.000000
v -1 0 1 1.000000 1.000000 1.000000
v 0 1 0 1.000000 1.000000 1.000000
v -1 1 0 1.000000 1.000000 1.000000
v -1 1 1 1.000000 1.000000 1.000000
v 0 1 1 1.000000 1.000000 1.000000
v -2 0 1 1.000000 1.000000 1.000000
v -1 0 2 1.000000 1.000000 1.000000
v -2 0 2 1.000000 1.000000 1.000000
v -2 1 1 1.000000 1.000000 1.000000
v -2 1 2 1.000000 1.000000 1.000000
v 0 0 2 1.000000 1.000000 1.000000
v -1 1 2 1.000000 1.000000 1.000000
v 0 1 2 1.000000 1.000000 1.000000
v -1 2 1 1.000000 1.000000 1.000000
v -2 2 1 1.000000 1.000000 1.000000
v -2 2 2 1.000000 1.000000 1.000000
v -1 2 2 1.000000 1.000000 1.000000
v -1 0 3 1.000000 1.000000 1.000000
v -2 0 3 1.000000 1.000000 1.000000
v -2 1 3 1.000000 1.000000 1.000000
v -1 1 3 1.000000 1.000000 1.000000
v 1 0 1 1.000000 1.000000 1.000000
v 1 0 2 1.000000 1.000000 1.000000
v 1 1 1 1.000000 1.000000 1.000000
v 1 1 2 1.000000 1.000000 1.000000
vn 0 -1 0
vn 0 1 0
vn 0 0 -1
vn 1 0 0
vn -1 0 0
vn 0 0 1
f 1//1 2//1 3//1 4//1
f 5//2 6//2 7//2 8//2
f 1//3 6//3 5//3 2//3
f 2//4 5//4 8//4 3//4
f 1//5 4//5 7//5 6//5
f 9//1 4//1 10//1 11//1
f 9//3 12//3 7//3 4//3
f 9//5 11//5 13//5 12//5
f 4//1 3//1 14//1 10//1
f 8//2 7//2 15//2 16//2
f 14//6 16//6 15//6 10//6
f 17//2 18//2 19//2 20//2
f 12//3 18//3 17//3 7//3
f 15//6 20//6 19//6 13//6
f 7//4 17//4 20//4 15//4
f 12//5 13//5 19//5 18//5
f 11//1 10//1 21//1 22//1
f 15//2 13//2 23//2 24//2
f 21//6 24//6 23//6 22//6
f 10//4 15//4 24//4 21//4
f 11//5 22//5 23//5 13//5
f 3//1 25//1 26//1 14//1
f 27//2 8//2 16//2 28//2
f 3//3 8//3 27//3 25//3
f 26//6 28//6 16//6 14//6
f 25//4 27//4 28//4 26//4
