# Goxel 0.10.8
v -3 -1 2 1.000000 1.000000 1.000000
v -2 -1 2 1.000000 1.000000 1.000000
v -2 -1 3 1.000000 1.000000 1.000000
v -3 -1 3 1.000000 1.000000 1.000000
v -3 0 2 1.000000 1.000000 1.000000
v -2 0 2 1.000000 1.000000 1.000000
v -3 0 3 1.000000 1.000000 1.000000
v -1 -1 2 1.000000 1.000000 1.000000
v -1 -1 3 1.000000 1.000000 1.000000
v -1 0 2 1.000000 1.000000 1.000000
v 0 -1 2 1.000000 1.000000 1.000000
v 0 -1 3 1.000000 1.000000 1.000000
v 0 0 2 1.000000 1.000000 1.000000
v -2 -1 4 1.000000 1.000000 1.000000
v -3 -1 4 1.000000 1.000000 1.000000
v -3 0 4 1.000000 1.000000 1.000000
v -1 -1 4 1.000000 1.000000 1.000000
v 0 -1 4 1.000000 1.000000 1.000000
v -4 -1 4 1.000000 1.000000 1.000000
v -3 -1 5 1.000000 1.000000 1.000000
v -4 -1 5 1.000000 1.000000 1.000000
v -4 0 4 1.000000 1.000000 1.000000
v -4 0 5 1.000000 1.000000 1.000000
v -3 0 5 1.000000 1.000000 1.000000
v -2 -1 5 1.000000 1.000000 1.000000
v -2 0 5 1.000000 1.000000 1.000000
v -1 -1 5 1.000000 1.000000 1.000000
v 0 -1 5 1.000000 1.000000 1.000000
v -3 -1 6 1.000000 1.000000 1.000000
v -4 -1 6 1.000000 1.000000 1.000000
v -4 0 6 1.000000 1.000000 1.000000
v -3 0 6 1.000000 1.000000 1.000000
v -1 -1 6 1.000000 1.000000 1.000000
v -2 -1 6 1.000000 1.000000 1.000000
v -1 0 5 1.000000 1.000000 1.000000
v -2 0 6 1.000000 1.000000 1.000000
v -1 0 6 1.000000 1.000000 1.000000
v 0 -1 6 1.000000 1.000000 1.000000
v 0 0 5 1.000000 1.000000 1.000000
v 0 0 6 1.000000 1.000000 1.000000
v 1 -1 0 1.000000 1.000000 1.000000
v 2 -1 0 1.000000 1.000000 1.000000
v 2 -1 1 1.000000 1.000000 1.000000
v 1 -1 1 1.000000 1.000000 1.000000
v 2 0 0 1.000000 1.000000 1.000000
v 1 0 0 1.000000 1.000000 1.000000
v 1 0 1 1.000000 1.000000 1.000000
v 2 0 1 1.000000 1.000000 1.000000
v 3 -1 0 1.000000 1.000000 1.000000
v 3 -1 1 1.000000 1.000000 1.000000
v 3 0 0 1.000000 1.000000 1.000000
v 3 0 1 1.000000 1.000000 1.000000
v 0 -1 1 1.000000 1.000000 1.000000
v 1 -1 2 1.000000 1.000000 1.000000
v 0 0 1 1.000000 1.000000 1.000000
v 1 0 2 1.000000 1.000000 1.000000
v 2 -1 2 1.000000 1.000000 1.000000
v 3 -1 2 1.000000 1.000000 1.000000
v 4 -1 1 1.000000 1.000000 1.000000
v 4 -1 2 1.000000 1.000000 1.000000
v 4 0 1 1.000000 1.000000 1.000000
v 3 0 2 1.000000 1.000000 1.000000
v 4 0 2 1.000000 1.000000 1.000000
v 1 -1 3 1.000000 1.000000 1.000000
v 0 0 3 1.000000 1.000000 1.000000
v 1 0 3 1.000000 1.000000 1.000000
v 2 -1 3 1.000000 1.000000 1.000000
v 3 -1 3 1.000000 1.000000 1.000000
v 2 0 2 1.000000 1.000000 1.000000
v 2 0 3 1.000000 1.000000 1.000000
v 3 0 3 1.000000 1.000000 1.000000
v 1 -1 4 1.000000 1.000000 1.000000
v 0 0 4 1.000000 1.000000 1.000000
v 1 0 4 1.000000 1.000000 1.000000
v 2 -1 4 1.000000 1.000000 1.000000
v 2 0 4 1.000000 1.000000 1.000000
v 3 -1 4 1.000000 1.000000 1.000000
v 3 0 4 1.000000 1.000000 1.000000
v 4 -1 3 1.000000 1.000000 1.000000
v 4 -1 4 1.000000 1.000000 1.000000
v 4 0 3 1.000000 1.000000 1.000000
v 4 0 4 1.000000 1.000000 1.000000
v 1 -1 5 1.000000 1.000000 1.000000
v 2 -1 5 1.000000 1.000000 1.000000
v 3 -1 5 1.000000 1.000000 1.000000
v 4 -1 5 1.000000 1.000000 1.000000
v 3 0 5 1.000000 1.000000 1.000000
v 4 0 5 1.000000 1.000000 1.000000
v 1 -1 6 1.000000 1.000000 1.000000
v 2 -1 6 1.000000 1.000000 1.000000
v 2 0 5 1.000000 1.000000 1.000000
v 1 0 5 1.000000 1.000000 1.000000
v 1 0 6 1.000000 1.000000 1.000000
v 2 0 6 1.000000 1.000000 1.000000
v 3 -1 6 1.000000 1.000000 1.000000
v 3 0 6 1.000000 1.000000 1.000000
v 1 -1 7 1.000000 1.000000 1.000000
v 0 -1 7 1.000000 1.000000 1.000000
v 0 0 7 1.000000 1.000000 1.000000
v 1 0 7 1.000000 1.000000 1.000000
v -3 1 2 1.000000 1.000000 1.000000
v -2 1 2 1.000000 1.000000 1.000000
v -3 1 3 1.000000 1.000000 1.000000
v -1 1 2 1.000000 1.000000 1.000000
v 0 1 2 1.000000 1.000000 1.000000
v 0 1 3 1.000000 1.000000 1.000000
v -2 2 2 1.000000 1.000000 1.000000
v -3 2 2 1.000000 1.000000 1.000000
v -3 2 3 1.000000 1.000000 1.000000
v -2 2 3 1.000000 1.000000 1.000000
v -2 1 3 1.000000 1.000000 1.000000
v -1 2 2 1.000000 1.000000 1.000000
v -1 2 3 1.000000 1.000000 1.000000
v 0 2 2 1.000000 1.000000 1.000000
v 0 2 3 1.000000 1.000000 1.000000
v 0 3 2 1.000000 1.000000 1.000000
v -1 3 2 1.000000 1.000000 1.000000
v -1 3 3 1.000000 1.000000 1.000000
v 0 3 3 1.000000 1.000000 1.000000
v -3 1 4 1.000000 1.000000 1.000000
v -2 1 4 1.000000 1.000000 1.000000
v 0 1 4 1.000000 1.000000 1.000000
v -2 2 4 1.000000 1.000000 1.000000
v -1 2 4 1.000000 1.000000 1.000000
v 0 2 4 1.000000 1.000000 1.000000
v -1 3 4 1.000000 1.000000 1.000000
v 0 3 4 1.000000 1.000000 1.000000
v -3 1 5 1.000000 1.000000 1.000000
v -2 1 5 1.000000 1.000000 1.000000
v -1 1 5 1.000000 1.000000 1.000000
v 0 1 5 1.000000 1.000000 1.000000
v -2 2 5 1.000000 1.000000 1.000000
v -1 2 5 1.000000 1.000000 1.000000
v 0 2 5 1.000000 1.000000 1.000000
v 2 1 1 1.000000 1.000000 1.000000
v 1 1 1 1.000000 1.000000 1.000000
v 1 1 2 1.000000 1.000000 1.000000
v 2 1 2 1.000000 1.000000 1.000000
v 3 1 1 1.000000 1.000000 1.000000
v 3 1 2 1.000000 1.000000 1.000000
v 1 1 3 1.000000 1.000000 1.000000
v 2 1 3 1.000000 1.000000 1.000000
v 4 1 3 1.000000 1.000000 1.000000
v 3 1 3 1.000000 1.000000 1.000000
v 3 1 4 1.000000 1.000000 1.000000
v 4 1 4 1.000000 1.000000 1.000000
v 1 1 4 1.000000 1.000000 1.000000
v 2 1 4 1.000000 1.000000 1.000000
v 1 1 5 1.000000 1.000000 1.000000
v 2 1 5 1.000000 1.000000 1.000000
v 3 1 5 1.000000 1.000000 1.000000
v 1 2 4 1.000000 1.000000 1.000000
v 1 2 5 1.000000 1.000000 1.000000
v 0 1 6 1.000000 1.000000 1.000000
v 1 1 6 1.000000 1.000000 1.000000
vn 0 -1 0
vn 0 0 -1
vn -1 0 0
vn 0 1 0
vn 0 0 1
vn 1 0 0
f 1//1 2//1 3//1 4//1
f 1//2 5//2 6//2 2//2
f 1//3 4//3 7//3 5//3
f 2//1 8//1 9//1 3//1
f 2//2 6//2 10//2 8//2
f 8//1 11//1 12//1 9//1
f 8//2 10//2 13//2 11//2
f 4//1 3//1 14//1 15//1
f 4//3 15//3 16//3 7//3
f 3//1 9//1 17//1 14//1
f 9//1 12//1 18//1 17//1
f 19//1 15//1 20//1 21//1
f 16//4 22//4 23//4 24//4
f 19//2 22//2 16//2 15//2
f 19//3 21//3 23//3 22//3
f 15//1 14//1 25//1 20//1
f 25//5 26//5 24//5 20//5
f 14//1 17//1 27//1 25//1
f 17//1 18//1 28//1 27//1
f 21//1 20//1 29//1 30//1
f 24//4 23//4 31//4 32//4
f 29//5 32//5 31//5 30//5
f 20//6 24//6 32//6 29//6
f 21//3 30//3 31//3 23//3
f 25//1 27//1 33//1 34//1
f 35//4 26//4 36//4 37//4
f 33//5 37//5 36//5 34//5
f 25//3 34//3 36//3 26//3
f 27//1 28//1 38//1 33//1
f 39//4 35//4 37//4 40//4
f 38//5 40//5 37//5 33//5
f 41//1 42//1 43//1 44//1
f 45//4 46//4 47//4 48//4
f 41//2 46//2 45//2 42//2
f 41//3 44//3 47//3 46//3
f 42//1 49//1 50//1 43//1
f 51//4 45//4 48//4 52//4
f 42//2 45//2 51//2 49//2
f 49//6 51//6 52//6 50//6
f 53//1 44//1 54//1 11//1
f 47//4 55//4 13//4 56//4
f 53//2 55//2 47//2 44//2
f 53//3 11//3 13//3 55//3
f 44//1 43//1 57//1 54//1
f 43//1 50//1 58//1 57//1
f 50//1 59//1 60//1 58//1
f 61//4 52//4 62//4 63//4
f 50//2 52//2 61//2 59//2
f 60//5 63//5 62//5 58//5
f 59//6 61//6 63//6 60//6
f 11//1 54//1 64//1 12//1
f 56//4 13//4 65//4 66//4
f 54//1 57//1 67//1 64//1
f 57//1 58//1 68//1 67//1
f 62//4 69//4 70//4 71//4
f 58//6 62//6 71//6 68//6
f 12//1 64//1 72//1 18//1
f 66//4 65//4 73//4 74//4
f 64//1 67//1 75//1 72//1
f 70//4 66//4 74//4 76//4
f 67//1 68//1 77//1 75//1
f 71//4 70//4 76//4 78//4
f 68//1 79//1 80//1 77//1
f 68//2 71//2 81//2 79//2
f 79//6 81//6 82//6 80//6
f 18//1 72//1 83//1 28//1
f 72//1 75//1 84//1 83//1
f 75//1 77//1 85//1 84//1
f 77//1 80//1 86//1 85//1
f 82//4 78//4 87//4 88//4
f 86//5 88//5 87//5 85//5
f 80//6 82//6 88//6 86//6
f 28//1 83//1 89//1 38//1
f 83//1 84//1 90//1 89//1
f 91//4 92//4 93//4 94//4
f 90//5 94//5 93//5 89//5
f 84//1 85//1 95//1 90//1
f 87//4 91//4 94//4 96//4
f 95//5 96//5 94//5 90//5
f 85//6 87//6 96//6 95//6
f 38//1 89//1 97//1 98//1
f 93//4 40//4 99//4 100//4
f 97//5 100//5 99//5 98//5
f 89//6 93//6 100//6 97//6
f 38//3 98//3 99//3 40//3
f 5//2 101//2 102//2 6//2
f 5//3 7//3 103//3 101//3
f 6//2 102//2 104//2 10//2
f 10//2 104//2 105//2 13//2
f 13//6 105//6 106//6 65//6
f 107//4 108//4 109//4 110//4
f 101//2 108//2 107//2 102//2
f 111//5 110//5 109//5 103//5
f 101//3 103//3 109//3 108//3
f 112//4 107//4 110//4 113//4
f 102//2 107//2 112//2 104//2
f 104//2 112//2 114//2 105//2
f 105//6 114//6 115//6 106//6
f 116//4 117//4 118//4 119//4
f 112//2 117//2 116//2 114//2
f 114//6 116//6 119//6 115//6
f 112//3 113//3 118//3 117//3
f 111//4 103//4 120//4 121//4
f 7//3 16//3 120//3 103//3
f 65//6 106//6 122//6 73//6
f 113//4 110//4 123//4 124//4
f 111//3 121//3 123//3 110//3
f 106//6 115//6 125//6 122//6
f 119//4 118//4 126//4 127//4
f 125//5 127//5 126//5 124//5
f 115//6 119//6 127//6 125//6
f 113//3 124//3 126//3 118//3
f 121//4 120//4 128//4 129//4
f 26//5 129//5 128//5 24//5
f 16//3 24//3 128//3 120//3
f 35//5 130//5 129//5 26//5
f 39//5 131//5 130//5 35//5
f 124//4 123//4 132//4 133//4
f 130//5 133//5 132//5 129//5
f 121//3 129//3 132//3 123//3
f 125//4 124//4 133//4 134//4
f 131//5 134//5 133//5 130//5
f 135//4 136//4 137//4 138//4
f 47//2 136//2 135//2 48//2
f 47//3 56//3 137//3 136//3
f 139//4 135//4 138//4 140//4
f 48//2 135//2 139//2 52//2
f 62//5 140//5 138//5 69//5
f 52//6 139//6 140//6 62//6
f 138//4 137//4 141//4 142//4
f 70//5 142//5 141//5 66//5
f 69//6 138//6 142//6 70//6
f 56//3 66//3 141//3 137//3
f 143//4 144//4 145//4 146//4
f 71//2 144//2 143//2 81//2
f 82//5 146//5 145//5 78//5
f 81//6 143//6 146//6 82//6
f 71//3 78//3 145//3 144//3
f 73//2 122//2 147//2 74//2
f 148//4 147//4 149//4 150//4
f 74//2 147//2 148//2 76//2
f 91//5 150//5 149//5 92//5
f 145//4 148//4 150//4 151//4
f 76//2 148//2 145//2 78//2
f 87//5 151//5 150//5 91//5
f 78//6 145//6 151//6 87//6
f 152//4 125//4 134//4 153//4
f 122//2 125//2 152//2 147//2
f 149//5 153//5 134//5 131//5
f 147//6 152//6 153//6 149//6
f 149//4 131//4 154//4 155//4
f 93//5 155//5 154//5 40//5
f 92//6 149//6 155//6 93//6
f 39//3 40//3 154//3 131//3
